<?xml version="1.0" standalone="no"?>
<!DOCTYPE svg PUBLIC "-//W3C//DTD SVG 20010904//EN"
 "http://www.w3.org/TR/2001/REC-SVG-20010904/DTD/svg10.dtd">
<svg version="1.0" xmlns="http://www.w3.org/2000/svg"
 width="332.000000pt" height="332.000000pt" viewBox="0 0 332.000000 332.000000"
 preserveAspectRatio="xMidYMid meet">
<metadata>
Created by potrace 1.11, written by Peter Selinger 2001-2013
</metadata>
<g transform="translate(0.000000,332.000000) scale(0.100000,-0.100000)"
fill="#000000" stroke="none">
<path d="M735 2551 c-35 -15 -84 -74 -100 -120 -29 -82 -13 -167 38 -207 14
-11 196 -121 406 -245 336 -197 380 -226 375 -244 -4 -11 -8 -74 -10 -140 l-3
-120 -138 -58 c-76 -33 -259 -99 -408 -149 -148 -49 -278 -97 -289 -106 -73
-65 -54 -246 31 -308 34 -25 87 -44 122 -44 14 0 228 87 475 194 l449 193 51
-20 c64 -25 228 -34 308 -18 196 41 341 198 355 384 15 193 -66 340 -231 420
-105 52 -261 71 -375 46 l-51 -11 -452 278 c-467 285 -496 300 -553 275z"/>
</g>
</svg>
